<?xml version="1.0" standalone="no"?>
<!DOCTYPE svg PUBLIC "-//W3C//DTD SVG 20010904//EN"
 "http://www.w3.org/TR/2001/REC-SVG-20010904/DTD/svg10.dtd">
<svg version="1.0" xmlns="http://www.w3.org/2000/svg"
 width="451.000000pt" height="451.000000pt" viewBox="0 0 451.000000 451.000000"
 preserveAspectRatio="xMidYMid meet">
<metadata>
Created by potrace 1.11, written by Peter Selinger 2001-2013
</metadata>
<g transform="translate(0.000000,451.000000) scale(0.100000,-0.100000)"
fill="#000000" stroke="none">
<path d="M93 4394 c-22 -15 -52 -45 -67 -67 l-26 -41 0 -2026 0 -2027 23 -44
c13 -24 43 -57 66 -74 l43 -30 2123 0 2123 0 43 30 c23 17 53 50 66 74 l23 44
0 2027 0 2026 -26 41 c-15 22 -45 52 -67 67 l-41 26 -2121 0 -2121 0 -41 -26z
m3995 -1356 c17 -17 17 -2109 0 -2126 -17 -17 -3649 -17 -3666 0 -17 17 -17
2109 0 2126 17 17 3649 17 3666 0z"/>
<path d="M2112 2896 c-219 -54 -405 -248 -447 -471 -28 -144 -12 -257 56 -394
144 -292 507 -411 807 -265 57 28 97 58 152 113 124 124 180 257 180 428 0
110 -14 172 -62 272 -74 156 -239 286 -406 320 -70 14 -213 13 -280 -3z"/>
<path d="M1164 1516 c-3 -7 -4 -42 -2 -77 l3 -64 1090 0 1090 0 0 75 0 75
-1088 3 c-909 2 -1088 0 -1093 -12z"/>
<path d="M1664 1227 c-3 -8 -4 -43 -2 -78 l3 -64 590 0 590 0 0 75 0 75 -588
3 c-489 2 -588 0 -593 -11z"/>
</g>
</svg>
